<?xml version="1.0" encoding="utf-8"?>
<!-- Generator: Adobe Illustrator 17.1.0, SVG Export Plug-In . SVG Version: 6.00 Build 0)  -->
<!DOCTYPE svg PUBLIC "-//W3C//DTD SVG 1.1//EN" "http://www.w3.org/Graphics/SVG/1.1/DTD/svg11.dtd">
<svg version="1.1" id="Layer_1" xmlns="http://www.w3.org/2000/svg" xmlns:xlink="http://www.w3.org/1999/xlink" x="0px" y="0px"
	 viewBox="-293.667 294.546 22.834 19.608" enable-background="new -293.667 294.546 22.834 19.608" xml:space="preserve">
<g>
	<path fill="#FFD30D" d="M-274.928,308.943h-6.945c-0.276,0-0.5-0.224-0.5-0.5s0.224-0.5,0.5-0.5h6.945
		c1.706,0,3.095-1.388,3.095-3.094s-1.389-3.094-3.095-3.094c-0.144,0-0.293-0.061-0.388-0.167c-0.095-0.107-0.152-0.25-0.135-0.391
		c0.024-0.206,0.043-0.413,0.043-0.624c0-2.772-2.255-5.027-5.026-5.027c-2.09,0-3.982,1.32-4.71,3.286
		c-0.059,0.16-0.195,0.279-0.362,0.315c-0.166,0.036-0.34-0.015-0.46-0.135c-0.423-0.423-0.984-0.656-1.581-0.656
		c-1.231,0-2.232,1.001-2.232,2.233c0,0.225-0.145,0.536-0.361,0.596c-1.487,0.411-2.526,1.775-2.526,3.316
		c0,1.898,1.545,3.443,3.444,3.443h2.853c0.276,0,0.5,0.224,0.5,0.5s-0.224,0.5-0.5,0.5h-2.853c-2.45,0-4.444-1.993-4.444-4.443
		c0-1.861,1.174-3.521,2.897-4.163c0.128-1.666,1.524-2.982,3.223-2.982c0.625,0,1.223,0.176,1.737,0.505
		c1.015-2.007,3.098-3.315,5.376-3.315c3.323,0,6.026,2.704,6.026,6.027c0,0.073-0.002,0.146-0.005,0.219
		c2.026,0.262,3.579,1.982,3.579,4.058C-270.833,307.107-272.67,308.943-274.928,308.943z"/>
</g>
<g>
	<path fill="#FFD30D" d="M-282.25,314.154l-2.628-2.628c-0.195-0.195-0.195-0.512,0-0.707s0.512-0.195,0.707,0l1.921,1.921
		l1.921-1.921c0.195-0.195,0.512-0.195,0.707,0s0.195,0.512,0,0.707L-282.25,314.154z"/>
</g>
<g>
	<path fill="#FFD30D" d="M-282.25,313.796c-0.276,0-0.5-0.224-0.5-0.5v-8.946c0-0.276,0.224-0.5,0.5-0.5s0.5,0.224,0.5,0.5v8.946
		C-281.75,313.572-281.974,313.796-282.25,313.796z"/>
</g>
</svg>
