<svg enable-background="new 0 0 64 64" height="512" viewBox="0 0 64 64" width="512" xmlns="http://www.w3.org/2000/svg"><g id="Layer_3"><g><g id="LINE_908_"><g><path fill="#FFD30D" d="m49.757 23.101c-.256 0-.512-.098-.707-.293l-12.929-12.929c-.391-.391-.391-1.023 0-1.414s1.023-.391 1.414 0l12.929 12.929c.391.391.391 1.023 0 1.414-.195.195-.451.293-.707.293z"/></g></g><g id="ARC_567_"><g><path fill="#FFD30D" d="m30.857 44.436c-.8 0-1.606-.063-2.413-.191-.546-.086-.918-.598-.831-1.144.085-.545.596-.92 1.144-.831 4.264.673 8.508-.737 11.642-3.87 3.134-3.134 4.545-7.377 3.871-11.643-.087-.546.286-1.058.831-1.144.547-.093 1.059.286 1.144.831.775 4.905-.84 9.778-4.432 13.369-3.001 3.001-6.896 4.623-10.956 4.623z"/></g></g><g id="ARC_566_"><g><path fill="#FFD30D" d="m28.602 44.257c-.372 0-.729-.208-.902-.566-.239-.497-.03-1.095.468-1.335 7.045-3.394 12.795-9.144 16.188-16.188.24-.498.839-.707 1.335-.468.498.24.707.838.468 1.335-3.591 7.452-9.672 13.533-17.124 17.124-.14.067-.288.098-.433.098z"/></g></g><g id="CIRCLE_47_"><g><path fill="#FFD30D" d="m22.485 37c-2.71 0-5-2.29-5-5s2.29-5 5-5 5 2.29 5 5-2.29 5-5 5zm0-8c-1.626 0-3 1.374-3 3s1.374 3 3 3 3-1.374 3-3-1.374-3-3-3z"/></g></g><g id="CIRCLE_46_"><g><path fill="#FFD30D" d="m34 25.485c-2.71 0-5-2.29-5-5s2.29-5 5-5 5 2.29 5 5-2.29 5-5 5zm0-8c-1.626 0-3 1.374-3 3s1.374 3 3 3 3-1.374 3-3-1.374-3-3-3z"/></g></g><g id="ARC_565_"><g><path fill="#FFD30D" d="m51.172 35.828c-.256 0-.512-.098-.707-.293-.944-.943-1.465-2.199-1.465-3.535s.521-2.592 1.465-3.535c.391-.391 1.023-.391 1.414 0s.391 1.024 0 1.414c-.566.566-.879 1.319-.879 2.121s.313 1.555.879 2.121c.391.39.391 1.023 0 1.414-.195.195-.451.293-.707.293z"/></g></g><g id="LINE_907_"><g><path fill="#FFD30D" d="m54 38.657c-.256 0-.512-.098-.707-.293l-2.828-2.829c-.391-.391-.391-1.023 0-1.414s1.023-.391 1.414 0l2.828 2.829c.391.391.391 1.023 0 1.414-.195.196-.451.293-.707.293z"/></g></g><g id="LINE_906_"><g><path fill="#FFD30D" d="m51.172 30.172c-.256 0-.512-.098-.707-.293-.391-.391-.391-1.023 0-1.414l2.828-2.829c.391-.391 1.023-.391 1.414 0s.391 1.023 0 1.414l-2.828 2.829c-.195.195-.451.293-.707.293z"/></g></g><g id="LINE_905_"><g><path fill="#FFD30D" d="m36.828 55.828c-.256 0-.512-.098-.707-.293-.391-.391-.391-1.023 0-1.414l17.172-17.171c.391-.391 1.023-.391 1.414 0s.391 1.023 0 1.414l-17.172 17.171c-.195.195-.451.293-.707.293z"/></g></g><g id="LINE_904_"><g><path fill="#FFD30D" d="m54 38.657c-.553 0-1-.447-1-1v-11.314c0-.553.447-1 1-1s1 .447 1 1v11.314c0 .553-.447 1-1 1z"/></g></g><g id="ARC_564_"><g><path fill="#FFD30D" d="m36.828 10.172c-.256 0-.512-.098-.707-.293-1.133-1.133-3.109-1.133-4.242 0-.391.391-1.023.391-1.414 0-.391-.39-.391-1.023 0-1.414.943-.944 2.199-1.465 3.535-1.465s2.592.521 3.535 1.465c.391.391.391 1.024 0 1.414-.195.195-.451.293-.707.293z"/></g></g><g id="ARC_563_"><g><path fill="#FFD30D" d="m11.172 35.828c-.256 0-.512-.098-.707-.293-.944-.943-1.465-2.199-1.465-3.535s.521-2.592 1.465-3.535c.391-.391 1.023-.391 1.414 0s.391 1.024 0 1.414c-.566.566-.879 1.319-.879 2.121s.313 1.555.879 2.121c.391.39.391 1.023 0 1.414-.195.195-.451.293-.707.293z"/></g></g><g id="ARC_562_"><g><path fill="#FFD30D" d="m34 57c-1.336 0-2.592-.521-3.535-1.465-.391-.391-.391-1.024 0-1.414.391-.391 1.023-.391 1.414 0 1.133 1.133 3.109 1.133 4.242 0 .391-.391 1.023-.391 1.414 0 .391.39.391 1.023 0 1.414-.943.944-2.199 1.465-3.535 1.465z"/></g></g><g id="LINE_903_"><g><path fill="#FFD30D" d="m31.172 55.828c-.256 0-.512-.098-.707-.293l-20-20c-.391-.391-.391-1.023 0-1.414s1.023-.391 1.414 0l20 20c.391.391.391 1.023 0 1.414-.195.195-.451.293-.707.293z"/></g></g><g id="LINE_902_"><g><path fill="#FFD30D" d="m11.172 30.172c-.256 0-.512-.098-.707-.293-.391-.391-.391-1.023 0-1.414l20-20c.391-.391 1.023-.391 1.414 0s.391 1.023 0 1.414l-20 20c-.195.195-.451.293-.707.293z"/></g></g></g></g></svg>