<?xml version="1.0" encoding="utf-8"?>
<!-- Generator: Adobe Illustrator 17.1.0, SVG Export Plug-In . SVG Version: 6.00 Build 0)  -->
<!DOCTYPE svg PUBLIC "-//W3C//DTD SVG 1.1//EN" "http://www.w3.org/Graphics/SVG/1.1/DTD/svg11.dtd">
<svg version="1.1" id="Layer_1" xmlns="http://www.w3.org/2000/svg" xmlns:xlink="http://www.w3.org/1999/xlink" x="0px" y="0px"
	 viewBox="0 0 23 16" enable-background="new 0 0 23 16" xml:space="preserve">
<g>
	<path fill="#FFD30D" d="M12.315,10.365c-0.63,0.218-1.308,0.176-1.911-0.117c-0.417-0.203-0.767-0.515-1.013-0.9
		c-0.148-0.233-0.458-0.302-0.69-0.153S8.4,9.652,8.549,9.885c0.345,0.541,0.835,0.978,1.418,1.262
		c0.486,0.237,1.008,0.356,1.533,0.356c0.383,0,0.769-0.063,1.141-0.192c0.884-0.305,1.596-0.936,2.005-1.776
		c0.411-0.842,0.47-1.792,0.165-2.675c-0.304-0.883-0.936-1.595-1.777-2.005C11.302,4.01,9.199,4.731,8.354,6.466
		c-0.121,0.249-0.018,0.548,0.23,0.668c0.251,0.122,0.548,0.018,0.668-0.23c0.604-1.239,2.105-1.754,3.343-1.151
		c0.602,0.293,1.053,0.802,1.27,1.432c0.218,0.63,0.176,1.308-0.118,1.911C13.454,9.697,12.945,10.147,12.315,10.365z"/>
	<path fill="#FFD30D" d="M19.72,12.181c-0.184-0.207-0.499-0.226-0.706-0.041C16.942,13.984,14.274,15,11.5,15
		c-4.614,0-8.699-2.741-10.461-7C2.801,3.741,6.886,1,11.5,1c4.68,0,8.814,2.82,10.535,7.184c0.101,0.257,0.392,0.386,0.648,0.281
		c0.257-0.101,0.383-0.392,0.281-0.648C21.094,3.068,16.593,0,11.5,0C6.406,0,1.906,3.068,0.035,7.817C0.012,7.876,0,7.937,0,7.999
		v0.001c0,0.062,0.012,0.124,0.035,0.183C1.906,12.932,6.407,16,11.5,16c3.02,0,5.924-1.105,8.18-3.114
		C19.886,12.702,19.903,12.387,19.72,12.181z"/>
</g>
</svg>
