<?xml version="1.0" encoding="utf-8"?>
<!-- Generator: Adobe Illustrator 17.1.0, SVG Export Plug-In . SVG Version: 6.00 Build 0)  -->
<!DOCTYPE svg PUBLIC "-//W3C//DTD SVG 1.1//EN" "http://www.w3.org/Graphics/SVG/1.1/DTD/svg11.dtd">
<svg version="1.1" id="Layer_1" xmlns="http://www.w3.org/2000/svg" xmlns:xlink="http://www.w3.org/1999/xlink" x="0px" y="0px"
	 viewBox="0 0 18.624 20.151" enable-background="new 0 0 18.624 20.151" xml:space="preserve">
<g>
	<defs>
		<rect id="SVGID_1_" y="0" width="18.624" height="20.151"/>
	</defs>
	<clipPath id="SVGID_2_">
		<use xlink:href="#SVGID_1_"  overflow="visible"/>
	</clipPath>
</g>
<g>
	<path fill="#FFD30D" d="M14.793,17.56c-1.325,0-3.495-0.491-5.904-3.01c-2.383-2.491-4.802-1.819-4.904-1.789
		c-0.261,0.078-0.542-0.072-0.621-0.337c-0.079-0.264,0.069-0.541,0.333-0.621c0.125-0.036,3.092-0.896,5.916,2.056
		c2.813,2.94,5.142,2.791,5.91,2.637l1.971-11.391c-0.975,0.119-2.755-0.14-5.445-2.24c-3.964-3.092-6.117-1.5-6.522-1.134
		L1.235,14.331c-0.089,0.262-0.374,0.399-0.634,0.312C0.34,14.555,0.2,14.271,0.289,14.009L4.616,1.295
		C4.638,1.23,4.673,1.171,4.72,1.12c0.114-0.125,2.848-3.018,7.942,0.957c3.589,2.8,5.175,1.904,5.19,1.897
		c0.168-0.101,0.384-0.1,0.547,0.012c0.161,0.11,0.25,0.301,0.217,0.494l-2.163,12.499c-0.03,0.174-0.15,0.319-0.314,0.382
		C16.087,17.38,15.594,17.56,14.793,17.56z"/>
</g>
<g>
	<path fill="#FFD30D" d="M5.062,19.939c-0.204,0-0.396-0.126-0.47-0.328c-0.095-0.26,0.039-0.547,0.298-0.642
		c1.159-0.424,1.728-1.328,1.522-2.419c-0.195-1.024-1.187-1.702-2.21-1.505c-0.092,0.017-0.177,0.04-0.259,0.068
		c-0.262,0.085-0.546-0.051-0.635-0.312c-0.089-0.261,0.05-0.545,0.312-0.635c0.129-0.044,0.262-0.079,0.4-0.104
		c1.561-0.295,3.078,0.736,3.375,2.303c0.295,1.564-0.553,2.955-2.161,3.544C5.178,19.929,5.12,19.939,5.062,19.939z"/>
</g>
<g>
	<path fill="#FFD30D" d="M3.846,20.148c-1.036,0-1.972-0.387-2.671-1.125c-1.164-1.229-1.494-3.178-0.861-5.085
		c0.087-0.263,0.37-0.405,0.632-0.317c0.262,0.087,0.404,0.37,0.317,0.632c-0.508,1.534-0.258,3.137,0.639,4.083
		c0.711,0.752,1.737,0.991,2.889,0.681c0.265-0.07,0.542,0.085,0.614,0.352s-0.085,0.541-0.351,0.613
		C4.642,20.093,4.237,20.148,3.846,20.148z"/>
</g>
<g>
	<path fill="#FFD30D" d="M4.332,18.116c-1.014,0-1.881-0.742-2.023-1.771c-0.112-0.809,0.267-1.606,0.966-2.031
		c0.237-0.145,0.543-0.069,0.687,0.167s0.068,0.544-0.167,0.687c-0.358,0.219-0.553,0.627-0.496,1.041
		c0.078,0.563,0.581,0.957,1.146,0.901c0.271-0.038,0.52,0.171,0.549,0.446c0.028,0.274-0.172,0.52-0.446,0.548
		C4.474,18.112,4.402,18.116,4.332,18.116z"/>
</g>
</svg>
